{"title":"Miami.Vice.2006(HINDIdub) dvdrip.aaaevilacharya","uid":5853617,"size":728880256,"categoryP":"video","categoryS":"movies","magnet":"?xt=urn:btih:443f2a275ab2971b5625f2b2a780bc0b11eabc60&amp;dn=Miami.Vice.2006%28HINDIdub%29+dvdrip.aaaevilacharya&amp;tr=udp%3A%2F%2Ftracker.openbittorrent.com%3A80&amp;tr=udp%3A%2F%2Fopen.demonii.com%3A1337&amp;tr=udp%3A%2F%2Ftracker.coppersurfer.tk%3A6969&amp;tr=udp%3A%2F%2Fexodus.desync.com%3A6969","seeders":0,"leechers":1,"uploader":"achaevil","files":1,"time":1285512275,"description":"General\nComplete name                    : Miami.Vice(HINDI DUBB).DVDRip.aaaevilacharya.mkv\nFormat                           : Matroska\nFile size                        : 695 MiB\nDuration                         : 2h 5mn\nOverall bit rate                 : 773 Kbps\nEncoded date                     : UTC 2010-09-26 22:07:51\nWriting application              : mkvmerge \nWriting library                  : libebml v0.7.7 + libmatroska v0.8.1\n\nVideo\nID                               : 1\nFormat                           : MPEG-4 Visual\nFormat profile                   : Advanced Simple@L5\nFormat settings, BVOP            : Yes\nFormat settings, QPel            : No\nFormat settings, GMC             : No warppoints\nFormat settings, Matrix          : Custom\nCodec ID                         : XVID\nCodec ID/Hint                    : XviD\nDuration                         : 2h 5mn\nBit rate                         : 630 Kbps\nWidth                            : 720 pixels\nHeight                           : 350 pixels\nDisplay aspect ratio             : 2.057\nOriginal display aspect ratio    : 4:3\nFrame rate                       : 25.000 fps\nColor space                      : YUV\nChroma subsampling               : 4:2:0\nBit depth                        : 8 bits\nScan type                        : Progressive\nBits/(Pixel*Frame)               : 0.128\nStream size                      : 566 MiB (81%)\nTitle                            : aaaevilacharya\nWriting library                  : XviD 1.1.2 (UTC 2006-11-01)\nLanguage                         : Hindi\n\nAudio\nID                               : 2\nFormat                           : MPEG Audio\nFormat version                   : Version 1\nFormat profile                   : Layer 3\nMode                             : Joint stereo\nMode extension                   : MS Stereo\nCodec ID                         : A_MPEG/L3\nCodec ID/Hint                    : MP3\nDuration                         : 2h 5mn\nBit rate mode                    : Constant\nBit rate                         : 128 Kbps\nChannel(s)                       : 2 channels\nSampling rate                    : 48.0 KHz\nStream size                      : 115 MiB (17%)\nTitle                            : aaaevilacharya\nWriting library                  : LAME3.97 \nEncoding settings                : -m j -V 4 -q 2 -lowpass 17 -b 128\nLanguage                         : Hindi\n","torrent":{"xt":"urn:btih:443f2a275ab2971b5625f2b2a780bc0b11eabc60","amp;dn":"Miami.Vice.2006%28HINDIdub%29+dvdrip.aaaevilacharya","amp;tr":["udp%3A%2F%2Ftracker.openbittorrent.com%3A80","udp%3A%2F%2Fopen.demonii.com%3A1337","udp%3A%2F%2Ftracker.coppersurfer.tk%3A6969","udp%3A%2F%2Fexodus.desync.com%3A6969"],"infoHash":"443f2a275ab2971b5625f2b2a780bc0b11eabc60","infoHashBuffer":{"type":"Buffer","data":[68,63,42,39,90,178,151,27,86,37,242,178,167,128,188,11,17,234,188,96]},"announce":[],"urlList":[]}}